<svg width="50" height="50" viewBox="0 0 50 50" fill="none" xmlns="http://www.w3.org/2000/svg">
<rect x="0.5" y="0.5" width="49" height="49" rx="7.5" stroke="#E9E9F0"/>
<path d="M24.293 15.293C24.4805 15.1056 24.7348 15.0002 25 15.0002C25.2652 15.0002 25.5195 15.1056 25.707 15.293L28.707 18.293C28.8892 18.4816 28.99 18.7342 28.9877 18.9964C28.9854 19.2586 28.8802 19.5094 28.6948 19.6948C28.5094 19.8803 28.2586 19.9854 27.9964 19.9877C27.7342 19.99 27.4816 19.8892 27.293 19.707L26 18.414V28C26 28.2652 25.8946 28.5196 25.7071 28.7071C25.5196 28.8947 25.2652 29 25 29C24.7348 29 24.4804 28.8947 24.2929 28.7071C24.1054 28.5196 24 28.2652 24 28V18.414L22.707 19.707C22.5184 19.8892 22.2658 19.99 22.0036 19.9877C21.7414 19.9854 21.4906 19.8803 21.3052 19.6948C21.1198 19.5094 21.0146 19.2586 21.0123 18.9964C21.01 18.7342 21.1108 18.4816 21.293 18.293L24.293 15.293ZM17 24C17 23.4696 17.2107 22.9609 17.5858 22.5858C17.9609 22.2107 18.4696 22 19 22H21C21.2652 22 21.5196 22.1054 21.7071 22.2929C21.8946 22.4805 22 22.7348 22 23C22 23.2652 21.8946 23.5196 21.7071 23.7071C21.5196 23.8947 21.2652 24 21 24H19V33H31V24H29C28.7348 24 28.4804 23.8947 28.2929 23.7071C28.1054 23.5196 28 23.2652 28 23C28 22.7348 28.1054 22.4805 28.2929 22.2929C28.4804 22.1054 28.7348 22 29 22H31C31.5304 22 32.0391 22.2107 32.4142 22.5858C32.7893 22.9609 33 23.4696 33 24V33C33 33.5305 32.7893 34.0392 32.4142 34.4142C32.0391 34.7893 31.5304 35 31 35H19C18.4696 35 17.9609 34.7893 17.5858 34.4142C17.2107 34.0392 17 33.5305 17 33V24Z" fill="black"/>
</svg>
