<svg width="108" height="32" viewBox="0 0 108 32" fill="none" xmlns="http://www.w3.org/2000/svg">
<g clip-path="url(#clip0_18_4787)">
<path d="M30.076 0H1.82278C0.816089 0 0 0.818679 0 1.82857V30.1714C0 31.1813 0.816089 32 1.82278 32H30.076C31.0826 32 31.8987 31.1813 31.8987 30.1714V1.82857C31.8987 0.818679 31.0826 0 30.076 0Z" fill="black"/>
<g style="mix-blend-mode:hard-light" opacity="0.56" filter="url(#filter0_f_18_4787)">
<g style="mix-blend-mode:hard-light" opacity="0.56">
<path d="M26.7949 20.8C26.7949 17.4421 24.0814 14.72 20.7341 14.72C17.3868 14.72 14.6733 17.4421 14.6733 20.8C14.6733 24.1579 17.3868 26.88 20.7341 26.88C24.0814 26.88 26.7949 24.1579 26.7949 20.8Z" fill="#E5D4FC"/>
</g>
</g>
<g style="mix-blend-mode:hard-light" opacity="0.56" filter="url(#filter1_f_18_4787)">
<g style="mix-blend-mode:hard-light" opacity="0.56">
<path d="M22.0102 11.2C22.0102 7.8421 19.2967 5.12 15.9494 5.12C12.6022 5.12 9.88867 7.8421 9.88867 11.2C9.88867 14.5579 12.6022 17.28 15.9494 17.28C19.2967 17.28 22.0102 14.5579 22.0102 11.2Z" fill="#D4E4FC"/>
</g>
</g>
<g style="mix-blend-mode:hard-light" opacity="0.56" filter="url(#filter2_f_18_4787)">
<g style="mix-blend-mode:hard-light" opacity="0.56">
<path d="M17.225 20.8C17.225 17.4421 14.5115 14.72 11.1643 14.72C7.81701 14.72 5.10352 17.4421 5.10352 20.8C5.10352 24.1579 7.81701 26.88 11.1643 26.88C14.5115 26.88 17.225 24.1579 17.225 20.8Z" fill="#FCECE1"/>
</g>
</g>
<path d="M22.9671 19.4407C22.9671 23.5493 19.8252 26.88 15.9494 26.88C12.0736 26.88 8.93164 23.5493 8.93164 19.4407C8.93164 15.332 15.9494 5.12 15.9494 5.12C15.9494 5.12 22.9671 15.332 22.9671 19.4407Z" fill="white"/>
<path d="M22.9671 19.4407C22.9671 23.5493 19.8252 26.88 15.9494 26.88C12.0736 26.88 8.93164 23.5493 8.93164 19.4407C8.93164 15.332 15.9494 5.12 15.9494 5.12C15.9494 5.12 22.9671 15.332 22.9671 19.4407Z" fill="url(#paint0_radial_18_4787)"/>
<path d="M22.9671 19.4407C22.9671 23.5493 19.8252 26.88 15.9494 26.88C12.0736 26.88 8.93164 23.5493 8.93164 19.4407C8.93164 15.332 15.9494 5.12 15.9494 5.12C15.9494 5.12 22.9671 15.332 22.9671 19.4407Z" fill="url(#paint1_radial_18_4787)"/>
<path d="M22.9671 19.4407C22.9671 23.5493 19.8252 26.88 15.9494 26.88C12.0736 26.88 8.93164 23.5493 8.93164 19.4407C8.93164 15.332 15.9494 5.12 15.9494 5.12C15.9494 5.12 22.9671 15.332 22.9671 19.4407Z" fill="url(#paint2_radial_18_4787)"/>
<path d="M41.0127 26.4309V6.53606H45.7981V22.594H49.0352V26.4309H41.0127ZM50.5757 7.67297C50.5757 6.99092 50.8291 6.42246 51.3357 5.96783C51.8424 5.49389 52.4805 5.2572 53.2498 5.2572C54.0193 5.2572 54.6574 5.494 55.164 5.96772C55.6707 6.42257 55.9241 6.99092 55.9241 7.67297C55.9241 8.33617 55.6707 8.90452 55.164 9.37823C54.6574 9.85194 54.0193 10.0887 53.2498 10.0887C52.4805 10.0887 51.8424 9.85194 51.3357 9.37823C50.8291 8.90463 50.5757 8.33617 50.5757 7.67309V7.67297ZM50.8572 26.4309V11.6519H55.6426V26.4309H50.8572ZM57.6207 15.4887V11.6519H59.4504V8.52566H64.2358V11.6519H68.0359V15.4887H64.2358V22.594H68.3174V26.4309H59.4504V15.4887H57.6207ZM70.4264 26.4309V11.6519H75.071V13.7835H75.3525C75.5214 13.3287 75.7747 12.9309 76.1125 12.5899C76.8819 11.7751 77.8202 11.3677 78.9274 11.3677H80.4194V16.0572H78.0266C77.1822 16.0572 76.4972 16.3225 75.9718 16.853C75.465 17.3645 75.2118 18.0467 75.2118 18.8993V26.4309H70.4264ZM83.9076 24.5551C82.3312 23.0204 81.5431 21.1825 81.5431 19.0414C81.5431 16.9004 82.3312 15.0625 83.9076 13.5277C85.484 11.993 87.4169 11.2257 89.7063 11.2257C91.9959 11.2257 93.9287 11.993 95.5051 13.5277C97.0814 15.0625 97.8697 16.9004 97.8697 19.0414C97.8697 21.1825 97.0814 23.0204 95.5051 24.5551C93.9287 26.0899 91.9959 26.8572 89.7063 26.8572C87.4169 26.8572 85.484 26.0899 83.9076 24.5551ZM87.37 16.3699C86.7695 17.033 86.4692 17.9235 86.4692 19.0414C86.4692 20.1593 86.7695 21.0593 87.37 21.7414C87.9893 22.4045 88.7681 22.7362 89.7063 22.7362C90.6447 22.7362 91.4141 22.4045 92.0146 21.7414C92.6338 21.0593 92.9435 20.1593 92.9435 19.0414C92.9435 17.9235 92.6338 17.033 92.0146 16.3699C91.4141 15.6877 90.6447 15.3467 89.7063 15.3467C88.7681 15.3467 87.9893 15.6877 87.37 16.3699ZM99.9775 26.4309V6.53606H104.763V22.594H108V26.4309H99.9775Z" fill="black"/>
</g>
<defs>
<filter id="filter0_f_18_4787" x="-65.3267" y="-65.28" width="172.122" height="172.16" filterUnits="userSpaceOnUse" color-interpolation-filters="sRGB">
<feFlood flood-opacity="0" result="BackgroundImageFix"/>
<feBlend mode="normal" in="SourceGraphic" in2="BackgroundImageFix" result="shape"/>
<feGaussianBlur stdDeviation="40" result="effect1_foregroundBlur_18_4787"/>
</filter>
<filter id="filter1_f_18_4787" x="-70.1113" y="-74.88" width="172.122" height="172.16" filterUnits="userSpaceOnUse" color-interpolation-filters="sRGB">
<feFlood flood-opacity="0" result="BackgroundImageFix"/>
<feBlend mode="normal" in="SourceGraphic" in2="BackgroundImageFix" result="shape"/>
<feGaussianBlur stdDeviation="40" result="effect1_foregroundBlur_18_4787"/>
</filter>
<filter id="filter2_f_18_4787" x="-74.8965" y="-65.28" width="172.122" height="172.16" filterUnits="userSpaceOnUse" color-interpolation-filters="sRGB">
<feFlood flood-opacity="0" result="BackgroundImageFix"/>
<feBlend mode="normal" in="SourceGraphic" in2="BackgroundImageFix" result="shape"/>
<feGaussianBlur stdDeviation="40" result="effect1_foregroundBlur_18_4787"/>
</filter>
<radialGradient id="paint0_radial_18_4787" cx="0" cy="0" r="1" gradientUnits="userSpaceOnUse" gradientTransform="translate(10.8615 12.736) rotate(61.4942) scale(13.0001 22.825)">
<stop stop-color="#F7F7F7" stop-opacity="0.01"/>
<stop offset="1" stop-color="#E5D4FC"/>
</radialGradient>
<radialGradient id="paint1_radial_18_4787" cx="0" cy="0" r="1" gradientUnits="userSpaceOnUse" gradientTransform="translate(21.388 14.3681) rotate(144.472) scale(12.1702 21.9693)">
<stop stop-color="#F7F7F7" stop-opacity="0.01"/>
<stop offset="1" stop-color="#FCECE1"/>
</radialGradient>
<radialGradient id="paint2_radial_18_4787" cx="0" cy="0" r="1" gradientUnits="userSpaceOnUse" gradientTransform="translate(19.1073 19.9893) rotate(-105.76) scale(11.6264 39.3581)">
<stop stop-color="white" stop-opacity="0.01"/>
<stop offset="1" stop-color="#D4E4FC"/>
</radialGradient>
<clipPath id="clip0_18_4787">
<rect width="108" height="32" fill="white"/>
</clipPath>
</defs>
</svg>
